<?xml version="1.0" encoding="utf-8"?>
<!-- Generator: Adobe Illustrator 27.0.0, SVG Export Plug-In . SVG Version: 6.00 Build 0)  -->
<svg version="1.1" id="Layer_1" xmlns="http://www.w3.org/2000/svg" xmlns:xlink="http://www.w3.org/1999/xlink" x="0" y="0"
	 viewBox="0 0 83 20" style="enable-background:new 0 0 78.89 20;" xml:space="preserve">
<style type="text/css">
	.st0{fill:#FFFFFF;stroke:#FFFFFF;stroke-width:0;stroke-miterlimit:10;}
	.st1{font-family:'Arvo';}
	.st2{font-size:10.0312px;}
	.st3{fill:#FFFFFF;}
</style>
<path class="st0" d="M1.26,0.42h2.77c0,0-0.2,3.48,3.59,3.48c0,0,3.02,0.31,3.33-3.48h2.72c0,0,0.13,5.58-5.8,6.26
	c0,0-3.02,0.45-5.13-2.19C2.76,4.49,1.4,3.32,1.26,0.42z"/>
<path class="st0" d="M17.21,6.71l0,2.78c0,0-3.47-0.2-3.46,3.61c0,0-0.3,3.03,3.47,3.34l0,2.73c0,0-5.56,0.14-6.25-5.8
	c0,0-0.45-3.03,2.18-5.15C13.16,8.22,14.33,6.86,17.21,6.71z"/>
<path class="st0" d="M20.44,6.71h2.79v6.45c0,0,0.12,3.09,3.38,3.27v2.74c0,0-2.37,0.3-4.48-1.95c0,0-1.46-1.56-1.59-3.15
	s-0.09-2.86-0.09-2.86V6.71z"/>
<text transform="matrix(0.9969 0 0 1 33.5552 19.1885)" class="st0 st1 st2">Studieliv</text>
<circle class="st3" cx="30.28" cy="13.13" r="0.34"/>
<circle class="st3" cx="30.28" cy="14.59" r="0.34"/>
<circle class="st3" cx="30.28" cy="16.06" r="0.34"/>
<circle class="st3" cx="30.28" cy="17.52" r="0.34"/>
<circle class="st3" cx="30.28" cy="18.98" r="0.34"/>
</svg>
